# Blender v2.59 (sub 0) OBJ File: ''
# www.blender.org
v 0.382683 0.000000 0.923880
v 0.353553 0.146447 -0.923880
v 0.653281 0.270598 -0.707107
v 0.853553 0.353553 -0.382684
v 0.923880 0.382683 0.000000
v 0.853553 0.353553 0.382683
v 0.653281 0.270598 0.707107
v 0.353553 0.146447 0.923880
v 0.000000 0.000000 1.000000
v 0.270598 0.270598 0.923880
v 0.500000 0.500000 0.707107
v 0.653281 0.653281 0.382683
v 0.707107 0.707107 0.000000
v 0.653281 0.653281 -0.382684
v 0.500000 0.500000 -0.707107
v 0.270598 0.270598 -0.923880
v 0.146447 0.353553 -0.923880
v 0.270598 0.653281 -0.707107
v 0.353553 0.853553 -0.382684
v 0.382683 0.923879 0.000000
v 0.353553 0.853553 0.382683
v 0.270598 0.653281 0.707107
v 0.146447 0.353553 0.923880
v -0.000000 0.382683 0.923880
v -0.000000 0.707107 0.707107
v -0.000000 0.923879 0.382683
v -0.000000 1.000000 0.000000
v -0.000000 0.923879 -0.382684
v -0.000000 0.707107 -0.707107
v -0.000000 0.382683 -0.923880
v -0.146447 0.353553 -0.923880
v -0.270598 0.653281 -0.707107
v -0.353553 0.853553 -0.382684
v -0.382683 0.923879 0.000000
v -0.353553 0.853553 0.382683
v -0.270598 0.653281 0.707107
v -0.146447 0.353553 0.923880
v -0.270598 0.270598 0.923880
v -0.500000 0.500000 0.707107
v -0.653281 0.653281 0.382683
v -0.707107 0.707107 0.000000
v -0.653281 0.653281 -0.382684
v -0.500000 0.500000 -0.707107
v -0.270598 0.270598 -0.923880
v -0.353553 0.146447 -0.923880
v -0.653281 0.270598 -0.707107
v -0.853553 0.353553 -0.382684
v -0.923879 0.382683 0.000000
v -0.853553 0.353553 0.382683
v -0.653281 0.270598 0.707107
v -0.353553 0.146447 0.923880
v -0.382683 -0.000000 0.923880
v -0.707107 -0.000000 0.707107
v -0.923879 -0.000000 0.382683
v -1.000000 -0.000000 0.000000
v -0.923879 -0.000000 -0.382684
v -0.707107 -0.000000 -0.707107
v -0.382683 -0.000000 -0.923880
v -0.353553 -0.146447 -0.923880
v -0.653281 -0.270598 -0.707107
v -0.853553 -0.353553 -0.382684
v -0.923879 -0.382683 0.000000
v -0.853553 -0.353553 0.382683
v -0.653281 -0.270598 0.707107
v -0.353553 -0.146447 0.923880
v -0.270598 -0.270598 0.923880
v -0.500000 -0.500000 0.707107
v -0.653281 -0.653281 0.382683
v -0.707107 -0.707107 0.000000
v -0.653281 -0.653281 -0.382684
v -0.500000 -0.500000 -0.707107
v -0.270598 -0.270598 -0.923880
v -0.000000 -0.000000 -1.000000
v -0.146447 -0.353553 -0.923880
v -0.270598 -0.653281 -0.707107
v -0.353553 -0.853553 -0.382684
v -0.382683 -0.923879 0.000000
v -0.353553 -0.853553 0.382683
v -0.270598 -0.653281 0.707107
v -0.146447 -0.353553 0.923880
v 0.000000 -0.382683 0.923880
v 0.000000 -0.707107 0.707107
v 0.000000 -0.923879 0.382683
v 0.000000 -1.000000 0.000000
v 0.000000 -0.923879 -0.382684
v 0.000000 -0.707107 -0.707107
v 0.000000 -0.382683 -0.923880
v 0.146447 -0.353553 -0.923880
v 0.270598 -0.653281 -0.707107
v 0.353553 -0.853553 -0.382684
v 0.382683 -0.923879 0.000000
v 0.353553 -0.853553 0.382683
v 0.270598 -0.653281 0.707107
v 0.146447 -0.353553 0.923880
v 0.270598 -0.270598 0.923880
v 0.500000 -0.500000 0.707107
v 0.653281 -0.653281 0.382683
v 0.707106 -0.707106 0.000000
v 0.653281 -0.653281 -0.382684
v 0.500000 -0.500000 -0.707107
v 0.270598 -0.270598 -0.923880
v 0.353553 -0.146447 -0.923880
v 0.653281 -0.270598 -0.707107
v 0.853553 -0.353553 -0.382684
v 0.923879 -0.382683 0.000000
v 0.853553 -0.353553 0.382683
v 0.653281 -0.270598 0.707107
v 0.353553 -0.146447 0.923880
v 0.707106 0.000000 0.707107
v 0.923879 0.000000 0.382683
v 0.999999 0.000000 0.000000
v 0.923879 0.000000 -0.382684
v 0.707106 0.000000 -0.707107
v 0.382683 0.000000 -0.923880
vt 0.750000 0.125000
vt 0.410420 0.000000
vt 0.812500 0.125000
vt 0.750000 0.250000
vt 0.812500 0.250000
vt 0.750000 0.375000
vt 0.812500 0.375000
vt 0.750000 0.500000
vt 0.812500 0.500000
vt 0.750000 0.625000
vt 0.812500 0.625000
vt 0.750000 0.750000
vt 0.812500 0.750000
vt 0.750000 0.875000
vt 0.812500 0.875000
vt 0.877882 1.000000
vt 0.875000 0.875000
vt 0.875000 0.750000
vt 0.875000 0.625000
vt 0.875000 0.500000
vt 0.875000 0.375000
vt 0.875000 0.250000
vt 0.875000 0.125000
vt 0.937764 0.019531
vt 0.937500 0.125000
vt 0.937500 0.250000
vt 0.937500 0.375000
vt 0.937500 0.500000
vt 0.937500 0.625000
vt 0.937500 0.750000
vt 0.937500 0.875000
vt 1.000000 0.875000
vt 1.000000 0.750000
vt 1.000000 0.625000
vt 1.000000 0.500000
vt 1.000000 0.375000
vt 1.000000 0.250000
vt 1.000000 0.125000
vt 0.000000 0.125000
vt 0.062500 0.125000
vt 0.000000 0.250000
vt 0.062500 0.250000
vt 0.000000 0.375000
vt 0.062500 0.375000
vt 0.000000 0.500000
vt 0.062500 0.500000
vt 0.000000 0.625000
vt 0.062500 0.625000
vt 1.062500 0.625000
vt 1.062500 0.750000
vt 1.062500 0.875000
vt 1.125000 0.875000
vt 0.062500 0.875000
vt 0.062500 0.750000
vt 0.125000 0.750000
vt 0.125000 0.875000
vt 0.125000 0.625000
vt 0.125000 0.500000
vt 0.125000 0.375000
vt 0.125000 0.250000
vt 0.125000 0.125000
vt 0.187500 0.125000
vt 0.187500 0.250000
vt 0.187500 0.375000
vt 0.187500 0.500000
vt 0.187500 0.625000
vt 0.187500 0.750000
vt 0.187500 0.875000
vt 1.187500 0.875000
vt 1.250000 0.875000
vt 0.250000 0.750000
vt 0.250000 0.875000
vt 0.250000 0.625000
vt 0.250000 0.500000
vt 0.250000 0.375000
vt 0.250000 0.250000
vt 0.250000 0.125000
vt 0.312500 0.125000
vt 0.312500 0.250000
vt 0.312500 0.375000
vt 0.312500 0.500000
vt 0.312500 0.625000
vt 0.312500 0.750000
vt 0.312500 0.875000
vt 1.312500 0.875000
vt 1.375000 0.875000
vt 0.375000 0.750000
vt 0.375000 0.875000
vt 0.375000 0.625000
vt 0.375000 0.500000
vt 0.375000 0.375000
vt 0.375000 0.250000
vt 0.375000 0.125000
vt 0.437500 0.125000
vt 0.437500 0.250000
vt 0.437500 0.375000
vt 0.437500 0.500000
vt 0.437500 0.625000
vt 0.437500 0.750000
vt 0.437500 0.875000
vt 0.500000 0.875000
vt 0.500000 0.750000
vt 0.500000 0.625000
vt 0.500000 0.500000
vt 0.500000 0.375000
vt 0.500000 0.250000
vt 0.500000 0.125000
vt 0.562500 0.125000
vt 0.562500 0.250000
vt 0.562500 0.375000
vt 0.562500 0.500000
vt 0.562500 0.625000
vt 0.562500 0.750000
vt 0.562500 0.875000
vt 0.625000 0.875000
vt 0.625000 0.750000
vt 0.625000 0.625000
vt 0.625000 0.500000
vt 0.625000 0.375000
vt 0.625000 0.250000
vt 0.625000 0.125000
vt 0.687500 0.125000
vt 0.687500 0.250000
vt 0.687500 0.375000
vt 0.687500 0.500000
vt 0.687500 0.625000
vt 0.687500 0.750000
vt 0.687500 0.875000
vn 0.403088 0.000000 -0.915159
vn 0.000000 0.000000 -1.000000
vn 0.372387 0.154241 -0.915159
vn 0.718833 0.000000 -0.695151
vn 0.664113 0.275094 -0.695151
vn 0.927274 0.000000 -0.374340
vn 0.856685 0.354839 -0.374340
vn 1.000000 0.000000 0.000000
vn 0.923856 0.382672 0.000000
vn 0.927274 0.000000 0.374340
vn 0.856685 0.354839 0.374340
vn 0.718833 0.000000 0.695151
vn 0.664113 0.275094 0.695151
vn 0.403088 0.000000 0.915159
vn 0.372387 0.154241 0.915159
vn 0.000000 0.000000 1.000000
vn 0.285012 0.285012 0.915159
vn 0.508286 0.508286 0.695151
vn 0.655660 0.655660 0.374340
vn 0.707083 0.707083 0.000000
vn 0.655660 0.655660 -0.374340
vn 0.508286 0.508286 -0.695151
vn 0.285012 0.285012 -0.915159
vn 0.154241 0.372387 -0.915159
vn 0.275094 0.664113 -0.695151
vn 0.354839 0.856685 -0.374340
vn 0.382672 0.923856 0.000000
vn 0.354839 0.856685 0.374340
vn 0.275094 0.664113 0.695151
vn 0.154241 0.372387 0.915159
vn 0.000000 0.403088 0.915159
vn 0.000000 0.718833 0.695151
vn 0.000000 0.927274 0.374340
vn 0.000000 1.000000 0.000000
vn 0.000000 0.927274 -0.374340
vn 0.000000 0.718833 -0.695151
vn 0.000000 0.403088 -0.915159
vn -0.154241 0.372387 -0.915159
vn -0.275094 0.664113 -0.695151
vn -0.354839 0.856685 -0.374340
vn -0.382672 0.923856 0.000000
vn -0.354839 0.856685 0.374340
vn -0.275094 0.664113 0.695151
vn -0.154241 0.372387 0.915159
vn -0.285012 0.285012 0.915159
vn -0.508286 0.508286 0.695151
vn -0.655660 0.655660 0.374340
vn -0.707083 0.707083 0.000000
vn -0.655660 0.655660 -0.374340
vn -0.508286 0.508286 -0.695151
vn -0.285012 0.285012 -0.915159
vn -0.372387 0.154241 -0.915159
vn -0.664113 0.275094 -0.695151
vn -0.856685 0.354839 -0.374340
vn -0.923856 0.382672 0.000000
vn -0.856685 0.354839 0.374340
vn -0.664113 0.275094 0.695151
vn -0.372387 0.154241 0.915159
vn -0.403088 0.000000 0.915159
vn -0.718833 0.000000 0.695151
vn -0.927274 0.000000 0.374340
vn -1.000000 0.000000 0.000000
vn -0.927274 0.000000 -0.374340
vn -0.718833 0.000000 -0.695151
vn -0.403088 0.000000 -0.915159
vn -0.372387 -0.154241 -0.915159
vn -0.664113 -0.275094 -0.695151
vn -0.856685 -0.354839 -0.374340
vn -0.923856 -0.382672 0.000000
vn -0.856685 -0.354839 0.374340
vn -0.664113 -0.275094 0.695151
vn -0.372387 -0.154241 0.915159
vn -0.285012 -0.285012 0.915159
vn -0.508286 -0.508286 0.695151
vn -0.655660 -0.655660 0.374340
vn -0.707083 -0.707083 0.000000
vn -0.655660 -0.655660 -0.374340
vn -0.508286 -0.508286 -0.695151
vn -0.285012 -0.285012 -0.915159
vn -0.154241 -0.372387 -0.915159
vn -0.275094 -0.664113 -0.695151
vn -0.354839 -0.856685 -0.374340
vn -0.382672 -0.923856 0.000000
vn -0.354839 -0.856685 0.374340
vn -0.275094 -0.664113 0.695151
vn -0.154241 -0.372387 0.915159
vn 0.000000 -0.403088 0.915159
vn 0.000000 -0.718833 0.695151
vn 0.000000 -0.927274 0.374340
vn 0.000000 -1.000000 0.000000
vn 0.000000 -0.927274 -0.374340
vn 0.000000 -0.718833 -0.695151
vn 0.000000 -0.403088 -0.915159
vn 0.154241 -0.372387 -0.915159
vn 0.275094 -0.664113 -0.695151
vn 0.354839 -0.856685 -0.374340
vn 0.382672 -0.923856 0.000000
vn 0.354839 -0.856685 0.374340
vn 0.275094 -0.664113 0.695151
vn 0.154241 -0.372387 0.915159
vn 0.285012 -0.285012 0.915159
vn 0.508286 -0.508286 0.695151
vn 0.655660 -0.655660 0.374340
vn 0.707083 -0.707083 0.000000
vn 0.655660 -0.655660 -0.374340
vn 0.508286 -0.508286 -0.695151
vn 0.285012 -0.285012 -0.915159
vn 0.372387 -0.154241 -0.915159
vn 0.664113 -0.275094 -0.695151
vn 0.856685 -0.354839 -0.374340
vn 0.923856 -0.382672 0.000000
vn 0.856685 -0.354839 0.374340
vn 0.664113 -0.275094 0.695151
vn 0.372387 -0.154241 0.915159
usemtl 
s 1
f 114/1/1 73/2/2 2/3/3
f 113/4/4 114/1/1 2/3/3
f 113/4/4 2/3/3 3/5/5
f 112/6/6 113/4/4 3/5/5
f 112/6/6 3/5/5 4/7/7
f 111/8/8 112/6/6 4/7/7
f 111/8/8 4/7/7 5/9/9
f 110/10/10 111/8/8 5/9/9
f 110/10/10 5/9/9 6/11/11
f 109/12/12 110/10/10 6/11/11
f 109/12/12 6/11/11 7/13/13
f 1/14/14 109/12/12 7/13/13
f 1/14/14 7/13/13 8/15/15
f 9/16/16 1/14/14 8/15/15
f 9/16/16 8/15/15 10/17/17
f 8/15/15 7/13/13 11/18/18
f 8/15/15 11/18/18 10/17/17
f 7/13/13 6/11/11 12/19/19
f 7/13/13 12/19/19 11/18/18
f 6/11/11 5/9/9 13/20/20
f 6/11/11 13/20/20 12/19/19
f 5/9/9 4/7/7 14/21/21
f 5/9/9 14/21/21 13/20/20
f 4/7/7 3/5/5 15/22/22
f 4/7/7 15/22/22 14/21/21
f 3/5/5 2/3/3 16/23/23
f 3/5/5 16/23/23 15/22/22
f 2/3/3 73/2/2 16/23/23
f 16/23/23 73/24/2 17/25/24
f 15/22/22 16/23/23 17/25/24
f 15/22/22 17/25/24 18/26/25
f 14/21/21 15/22/22 18/26/25
f 14/21/21 18/26/25 19/27/26
f 13/20/20 14/21/21 19/27/26
f 13/20/20 19/27/26 20/28/27
f 12/19/19 13/20/20 20/28/27
f 12/19/19 20/28/27 21/29/28
f 11/18/18 12/19/19 21/29/28
f 11/18/18 21/29/28 22/30/29
f 10/17/17 11/18/18 22/30/29
f 10/17/17 22/30/29 23/31/30
f 9/16/16 10/17/17 23/31/30
f 9/16/16 23/31/30 24/32/31
f 23/31/30 22/30/29 25/33/32
f 23/31/30 25/33/32 24/32/31
f 22/30/29 21/29/28 26/34/33
f 22/30/29 26/34/33 25/33/32
f 21/29/28 20/28/27 27/35/34
f 21/29/28 27/35/34 26/34/33
f 20/28/27 19/27/26 28/36/35
f 20/28/27 28/36/35 27/35/34
f 19/27/26 18/26/25 29/37/36
f 19/27/26 29/37/36 28/36/35
f 18/26/25 17/25/24 30/38/37
f 18/26/25 30/38/37 29/37/36
f 17/25/24 73/24/2 30/38/37
f 30/39/37 73/2/2 31/40/38
f 29/41/36 30/39/37 31/40/38
f 29/41/36 31/40/38 32/42/39
f 28/43/35 29/41/36 32/42/39
f 28/43/35 32/42/39 33/44/40
f 27/45/34 28/43/35 33/44/40
f 27/45/34 33/44/40 34/46/41
f 26/47/33 27/45/34 34/46/41
f 26/47/33 34/46/41 35/48/42
f 25/33/32 26/34/33 35/49/42
f 25/33/32 35/49/42 36/50/43
f 24/32/31 25/33/32 36/50/43
f 24/32/31 36/50/43 37/51/44
f 9/16/16 24/32/31 37/51/44
f 9/16/16 37/51/44 38/52/45
f 37/53/44 36/54/43 39/55/46
f 37/53/44 39/55/46 38/56/45
f 36/54/43 35/48/42 40/57/47
f 36/54/43 40/57/47 39/55/46
f 35/48/42 34/46/41 41/58/48
f 35/48/42 41/58/48 40/57/47
f 34/46/41 33/44/40 42/59/49
f 34/46/41 42/59/49 41/58/48
f 33/44/40 32/42/39 43/60/50
f 33/44/40 43/60/50 42/59/49
f 32/42/39 31/40/38 44/61/51
f 32/42/39 44/61/51 43/60/50
f 31/40/38 73/2/2 44/61/51
f 44/61/51 73/2/2 45/62/52
f 43/60/50 44/61/51 45/62/52
f 43/60/50 45/62/52 46/63/53
f 42/59/49 43/60/50 46/63/53
f 42/59/49 46/63/53 47/64/54
f 41/58/48 42/59/49 47/64/54
f 41/58/48 47/64/54 48/65/55
f 40/57/47 41/58/48 48/65/55
f 40/57/47 48/65/55 49/66/56
f 39/55/46 40/57/47 49/66/56
f 39/55/46 49/66/56 50/67/57
f 38/56/45 39/55/46 50/67/57
f 38/56/45 50/67/57 51/68/58
f 9/16/16 38/52/45 51/69/58
f 9/16/16 51/69/58 52/70/59
f 51/68/58 50/67/57 53/71/60
f 51/68/58 53/71/60 52/72/59
f 50/67/57 49/66/56 54/73/61
f 50/67/57 54/73/61 53/71/60
f 49/66/56 48/65/55 55/74/62
f 49/66/56 55/74/62 54/73/61
f 48/65/55 47/64/54 56/75/63
f 48/65/55 56/75/63 55/74/62
f 47/64/54 46/63/53 57/76/64
f 47/64/54 57/76/64 56/75/63
f 46/63/53 45/62/52 58/77/65
f 46/63/53 58/77/65 57/76/64
f 45/62/52 73/2/2 58/77/65
f 58/77/65 73/2/2 59/78/66
f 57/76/64 58/77/65 59/78/66
f 57/76/64 59/78/66 60/79/67
f 56/75/63 57/76/64 60/79/67
f 56/75/63 60/79/67 61/80/68
f 55/74/62 56/75/63 61/80/68
f 55/74/62 61/80/68 62/81/69
f 54/73/61 55/74/62 62/81/69
f 54/73/61 62/81/69 63/82/70
f 53/71/60 54/73/61 63/82/70
f 53/71/60 63/82/70 64/83/71
f 52/72/59 53/71/60 64/83/71
f 52/72/59 64/83/71 65/84/72
f 9/16/16 52/70/59 65/85/72
f 9/16/16 65/85/72 66/86/73
f 65/84/72 64/83/71 67/87/74
f 65/84/72 67/87/74 66/88/73
f 64/83/71 63/82/70 68/89/75
f 64/83/71 68/89/75 67/87/74
f 63/82/70 62/81/69 69/90/76
f 63/82/70 69/90/76 68/89/75
f 62/81/69 61/80/68 70/91/77
f 62/81/69 70/91/77 69/90/76
f 61/80/68 60/79/67 71/92/78
f 61/80/68 71/92/78 70/91/77
f 60/79/67 59/78/66 72/93/79
f 60/79/67 72/93/79 71/92/78
f 59/78/66 73/2/2 72/93/79
f 72/93/79 73/2/2 74/94/80
f 71/92/78 72/93/79 74/94/80
f 71/92/78 74/94/80 75/95/81
f 70/91/77 71/92/78 75/95/81
f 70/91/77 75/95/81 76/96/82
f 69/90/76 70/91/77 76/96/82
f 69/90/76 76/96/82 77/97/83
f 68/89/75 69/90/76 77/97/83
f 68/89/75 77/97/83 78/98/84
f 67/87/74 68/89/75 78/98/84
f 67/87/74 78/98/84 79/99/85
f 66/88/73 67/87/74 79/99/85
f 66/88/73 79/99/85 80/100/86
f 9/16/16 66/86/73 80/100/86
f 9/16/16 80/100/86 81/101/87
f 80/100/86 79/99/85 82/102/88
f 80/100/86 82/102/88 81/101/87
f 79/99/85 78/98/84 83/103/89
f 79/99/85 83/103/89 82/102/88
f 78/98/84 77/97/83 84/104/90
f 78/98/84 84/104/90 83/103/89
f 77/97/83 76/96/82 85/105/91
f 77/97/83 85/105/91 84/104/90
f 76/96/82 75/95/81 86/106/92
f 76/96/82 86/106/92 85/105/91
f 75/95/81 74/94/80 87/107/93
f 75/95/81 87/107/93 86/106/92
f 74/94/80 73/2/2 87/107/93
f 87/107/93 73/2/2 88/108/94
f 86/106/92 87/107/93 88/108/94
f 86/106/92 88/108/94 89/109/95
f 85/105/91 86/106/92 89/109/95
f 85/105/91 89/109/95 90/110/96
f 84/104/90 85/105/91 90/110/96
f 84/104/90 90/110/96 91/111/97
f 83/103/89 84/104/90 91/111/97
f 83/103/89 91/111/97 92/112/98
f 82/102/88 83/103/89 92/112/98
f 82/102/88 92/112/98 93/113/99
f 81/101/87 82/102/88 93/113/99
f 81/101/87 93/113/99 94/114/100
f 9/16/16 81/101/87 94/114/100
f 9/16/16 94/114/100 95/115/101
f 94/114/100 93/113/99 96/116/102
f 94/114/100 96/116/102 95/115/101
f 93/113/99 92/112/98 97/117/103
f 93/113/99 97/117/103 96/116/102
f 92/112/98 91/111/97 98/118/104
f 92/112/98 98/118/104 97/117/103
f 91/111/97 90/110/96 99/119/105
f 91/111/97 99/119/105 98/118/104
f 90/110/96 89/109/95 100/120/106
f 90/110/96 100/120/106 99/119/105
f 89/109/95 88/108/94 101/121/107
f 89/109/95 101/121/107 100/120/106
f 88/108/94 73/2/2 101/121/107
f 101/121/107 73/2/2 102/122/108
f 100/120/106 101/121/107 102/122/108
f 100/120/106 102/122/108 103/123/109
f 99/119/105 100/120/106 103/123/109
f 99/119/105 103/123/109 104/124/110
f 98/118/104 99/119/105 104/124/110
f 98/118/104 104/124/110 105/125/111
f 97/117/103 98/118/104 105/125/111
f 97/117/103 105/125/111 106/126/112
f 96/116/102 97/117/103 106/126/112
f 96/116/102 106/126/112 107/127/113
f 95/115/101 96/116/102 107/127/113
f 95/115/101 107/127/113 108/128/114
f 9/16/16 95/115/101 108/128/114
f 108/128/114 1/14/14 9/16/16
f 109/12/12 1/14/14 108/128/114
f 109/12/12 108/128/114 107/127/113
f 107/127/113 106/126/112 110/10/10
f 107/127/113 110/10/10 109/12/12
f 106/126/112 105/125/111 111/8/8
f 106/126/112 111/8/8 110/10/10
f 105/125/111 104/124/110 112/6/6
f 105/125/111 112/6/6 111/8/8
f 104/124/110 103/123/109 113/4/4
f 104/124/110 113/4/4 112/6/6
f 103/123/109 102/122/108 114/1/1
f 103/123/109 114/1/1 113/4/4
f 102/122/108 73/2/2 114/1/1
